<svg width="36" height="36" viewBox="0 0 36 36" fill="none" xmlns="http://www.w3.org/2000/svg">
<rect width="36" height="36" rx="5" fill="#182D47"/>
<mask id="mask0_1065_14735" style="mask-type:alpha" maskUnits="userSpaceOnUse" x="6" y="6" width="24" height="24">
<rect x="6" y="6" width="24" height="24" fill="#D9D9D9"/>
</mask>
<g mask="url(#mask0_1065_14735)">
<path d="M10 26C9.45 26 8.97933 25.8043 8.588 25.413C8.196 25.021 8 24.55 8 24V12C8 11.45 8.196 10.9793 8.588 10.588C8.97933 10.196 9.45 10 10 10H16L18 12H26C26.55 12 27.021 12.196 27.413 12.588C27.8043 12.9793 28 13.45 28 14V24C28 24.55 27.8043 25.021 27.413 25.413C27.021 25.8043 26.55 26 26 26H10ZM10 12V24H26V14H17.175L15.175 12H10Z" fill="white"/>
</g>
</svg>
