<svg width="36" height="36" viewBox="0 0 36 36" fill="none" xmlns="http://www.w3.org/2000/svg">
<rect width="36" height="36" rx="5" fill="#94AC01"/>
<mask id="mask0_639_5006" style="mask-type:alpha" maskUnits="userSpaceOnUse" x="6" y="6" width="24" height="24">
<rect x="6" y="6" width="24" height="24" fill="#D9D9D9"/>
</mask>
<g mask="url(#mask0_639_5006)">
<path d="M10.9726 24.7774H12.3534L20.8603 16.2705L19.4795 14.8897L10.9726 23.3966V24.7774ZM25.0767 14.8404L20.8849 10.6979L22.2658 9.31712C22.6438 8.93904 23.1084 8.75 23.6594 8.75C24.2098 8.75 24.674 8.93904 25.0521 9.31712L26.4329 10.6979C26.811 11.076 27.0082 11.5324 27.0247 12.0669C27.0411 12.6008 26.8603 13.0568 26.4822 13.4349L25.0767 14.8404ZM23.6466 16.2952L13.1918 26.75H9V22.5582L19.4548 12.1034L23.6466 16.2952Z" fill="white"/>
</g>
</svg>
